<svg xmlns="http://www.w3.org/2000/svg" viewBox="0 0 1200 1200" width="1200" height="1200">
  <defs>
    <radialGradient id="coreGlow" cx="0.5" cy="0.5" r="0.5">
    <mask id="faceMask"><rect x="0" y="0" width="1200" height="1200" fill="white"/><circle cx="600" cy="600" r="132" fill="black"/></mask>
  </defs>
  <circle cx="600" cy="600" r="388" fill="rgba(8,11,12,0.42)" stroke="#B08A3C" stroke-width="1" opacity="0.85" mask="url(#faceMask)"/>
    <stop offset="0%" stop-color="#C9A85B" stop-opacity="0.22"/>
    <stop offset="60%" stop-color="#B08A3C" stop-opacity="0.07"/>
    <stop offset="100%" stop-color="#B08A3C" stop-opacity="0"/>
  </radialGradient></defs>
  <circle cx="600" cy="600" r="240" fill="url(#coreGlow)"/>
  <circle cx="600" cy="600" r="560" fill="none" stroke="#B08A3C" stroke-width="0.5" opacity="0.25" stroke-dasharray="2 6"/>
  <circle cx="600" cy="600" r="552" fill="none" stroke="#B08A3C" stroke-width="0.5" opacity="0.18" stroke-dasharray="1 10"/>
  <line x1="600.0" y1="52.0" x2="600.0" y2="44.0" stroke="#B08A3C" stroke-width="0.5" opacity="0.5"/>
  <line x1="647.9" y1="52.1" x2="648.2" y2="49.1" stroke="#B08A3C" stroke-width="0.5" opacity="0.12"/>
  <line x1="695.3" y1="59.3" x2="696.2" y2="54.4" stroke="#B08A3C" stroke-width="0.5" opacity="0.25"/>
  <line x1="742.4" y1="68.7" x2="743.1" y2="65.8" stroke="#B08A3C" stroke-width="0.5" opacity="0.12"/>
  <line x1="787.8" y1="84.1" x2="789.5" y2="79.4" stroke="#B08A3C" stroke-width="0.5" opacity="0.25"/>
  <line x1="832.4" y1="101.5" x2="833.7" y2="98.8" stroke="#B08A3C" stroke-width="0.5" opacity="0.12"/>
  <line x1="874.0" y1="125.4" x2="878.0" y2="118.5" stroke="#B08A3C" stroke-width="0.5" opacity="0.5"/>
  <line x1="915.5" y1="149.5" x2="917.2" y2="147.0" stroke="#B08A3C" stroke-width="0.5" opacity="0.12"/>
  <line x1="952.9" y1="179.4" x2="956.1" y2="175.6" stroke="#B08A3C" stroke-width="0.5" opacity="0.25"/>
  <line x1="988.9" y1="211.1" x2="991.0" y2="209.0" stroke="#B08A3C" stroke-width="0.5" opacity="0.12"/>
  <line x1="1020.6" y1="247.1" x2="1024.4" y2="243.9" stroke="#B08A3C" stroke-width="0.5" opacity="0.25"/>
  <line x1="1050.5" y1="284.5" x2="1053.0" y2="282.8" stroke="#B08A3C" stroke-width="0.5" opacity="0.12"/>
  <line x1="1074.6" y1="326.0" x2="1081.5" y2="322.0" stroke="#B08A3C" stroke-width="0.5" opacity="0.5"/>
  <line x1="1098.5" y1="367.6" x2="1101.2" y2="366.3" stroke="#B08A3C" stroke-width="0.5" opacity="0.12"/>
  <line x1="1115.9" y1="412.2" x2="1120.6" y2="410.5" stroke="#B08A3C" stroke-width="0.5" opacity="0.25"/>
  <line x1="1131.3" y1="457.6" x2="1134.2" y2="456.9" stroke="#B08A3C" stroke-width="0.5" opacity="0.12"/>
  <line x1="1140.7" y1="504.7" x2="1145.6" y2="503.8" stroke="#B08A3C" stroke-width="0.5" opacity="0.25"/>
  <line x1="1147.9" y1="552.1" x2="1150.9" y2="551.8" stroke="#B08A3C" stroke-width="0.5" opacity="0.12"/>
  <line x1="1148.0" y1="600.0" x2="1156.0" y2="600.0" stroke="#B08A3C" stroke-width="0.5" opacity="0.5"/>
  <line x1="1147.9" y1="647.9" x2="1150.9" y2="648.2" stroke="#B08A3C" stroke-width="0.5" opacity="0.12"/>
  <line x1="1140.7" y1="695.3" x2="1145.6" y2="696.2" stroke="#B08A3C" stroke-width="0.5" opacity="0.25"/>
  <line x1="1131.3" y1="742.4" x2="1134.2" y2="743.1" stroke="#B08A3C" stroke-width="0.5" opacity="0.12"/>
  <line x1="1115.9" y1="787.8" x2="1120.6" y2="789.5" stroke="#B08A3C" stroke-width="0.5" opacity="0.25"/>
  <line x1="1098.5" y1="832.4" x2="1101.2" y2="833.7" stroke="#B08A3C" stroke-width="0.5" opacity="0.12"/>
  <line x1="1074.6" y1="874.0" x2="1081.5" y2="878.0" stroke="#B08A3C" stroke-width="0.5" opacity="0.5"/>
  <line x1="1050.5" y1="915.5" x2="1053.0" y2="917.2" stroke="#B08A3C" stroke-width="0.5" opacity="0.12"/>
  <line x1="1020.6" y1="952.9" x2="1024.4" y2="956.1" stroke="#B08A3C" stroke-width="0.5" opacity="0.25"/>
  <line x1="988.9" y1="988.9" x2="991.0" y2="991.0" stroke="#B08A3C" stroke-width="0.5" opacity="0.12"/>
  <line x1="952.9" y1="1020.6" x2="956.1" y2="1024.4" stroke="#B08A3C" stroke-width="0.5" opacity="0.25"/>
  <line x1="915.5" y1="1050.5" x2="917.2" y2="1053.0" stroke="#B08A3C" stroke-width="0.5" opacity="0.12"/>
  <line x1="874.0" y1="1074.6" x2="878.0" y2="1081.5" stroke="#B08A3C" stroke-width="0.5" opacity="0.5"/>
  <line x1="832.4" y1="1098.5" x2="833.7" y2="1101.2" stroke="#B08A3C" stroke-width="0.5" opacity="0.12"/>
  <line x1="787.8" y1="1115.9" x2="789.5" y2="1120.6" stroke="#B08A3C" stroke-width="0.5" opacity="0.25"/>
  <line x1="742.4" y1="1131.3" x2="743.1" y2="1134.2" stroke="#B08A3C" stroke-width="0.5" opacity="0.12"/>
  <line x1="695.3" y1="1140.7" x2="696.2" y2="1145.6" stroke="#B08A3C" stroke-width="0.5" opacity="0.25"/>
  <line x1="647.9" y1="1147.9" x2="648.2" y2="1150.9" stroke="#B08A3C" stroke-width="0.5" opacity="0.12"/>
  <line x1="600.0" y1="1148.0" x2="600.0" y2="1156.0" stroke="#B08A3C" stroke-width="0.5" opacity="0.5"/>
  <line x1="552.1" y1="1147.9" x2="551.8" y2="1150.9" stroke="#B08A3C" stroke-width="0.5" opacity="0.12"/>
  <line x1="504.7" y1="1140.7" x2="503.8" y2="1145.6" stroke="#B08A3C" stroke-width="0.5" opacity="0.25"/>
  <line x1="457.6" y1="1131.3" x2="456.9" y2="1134.2" stroke="#B08A3C" stroke-width="0.5" opacity="0.12"/>
  <line x1="412.2" y1="1115.9" x2="410.5" y2="1120.6" stroke="#B08A3C" stroke-width="0.5" opacity="0.25"/>
  <line x1="367.6" y1="1098.5" x2="366.3" y2="1101.2" stroke="#B08A3C" stroke-width="0.5" opacity="0.12"/>
  <line x1="326.0" y1="1074.6" x2="322.0" y2="1081.5" stroke="#B08A3C" stroke-width="0.5" opacity="0.5"/>
  <line x1="284.5" y1="1050.5" x2="282.8" y2="1053.0" stroke="#B08A3C" stroke-width="0.5" opacity="0.12"/>
  <line x1="247.1" y1="1020.6" x2="243.9" y2="1024.4" stroke="#B08A3C" stroke-width="0.5" opacity="0.25"/>
  <line x1="211.1" y1="988.9" x2="209.0" y2="991.0" stroke="#B08A3C" stroke-width="0.5" opacity="0.12"/>
  <line x1="179.4" y1="952.9" x2="175.6" y2="956.1" stroke="#B08A3C" stroke-width="0.5" opacity="0.25"/>
  <line x1="149.5" y1="915.5" x2="147.0" y2="917.2" stroke="#B08A3C" stroke-width="0.5" opacity="0.12"/>
  <line x1="125.4" y1="874.0" x2="118.5" y2="878.0" stroke="#B08A3C" stroke-width="0.5" opacity="0.5"/>
  <line x1="101.5" y1="832.4" x2="98.8" y2="833.7" stroke="#B08A3C" stroke-width="0.5" opacity="0.12"/>
  <line x1="84.1" y1="787.8" x2="79.4" y2="789.5" stroke="#B08A3C" stroke-width="0.5" opacity="0.25"/>
  <line x1="68.7" y1="742.4" x2="65.8" y2="743.1" stroke="#B08A3C" stroke-width="0.5" opacity="0.12"/>
  <line x1="59.3" y1="695.3" x2="54.4" y2="696.2" stroke="#B08A3C" stroke-width="0.5" opacity="0.25"/>
  <line x1="52.1" y1="647.9" x2="49.1" y2="648.2" stroke="#B08A3C" stroke-width="0.5" opacity="0.12"/>
  <line x1="52.0" y1="600.0" x2="44.0" y2="600.0" stroke="#B08A3C" stroke-width="0.5" opacity="0.5"/>
  <line x1="52.1" y1="552.1" x2="49.1" y2="551.8" stroke="#B08A3C" stroke-width="0.5" opacity="0.12"/>
  <line x1="59.3" y1="504.7" x2="54.4" y2="503.8" stroke="#B08A3C" stroke-width="0.5" opacity="0.25"/>
  <line x1="68.7" y1="457.6" x2="65.8" y2="456.9" stroke="#B08A3C" stroke-width="0.5" opacity="0.12"/>
  <line x1="84.1" y1="412.2" x2="79.4" y2="410.5" stroke="#B08A3C" stroke-width="0.5" opacity="0.25"/>
  <line x1="101.5" y1="367.6" x2="98.8" y2="366.3" stroke="#B08A3C" stroke-width="0.5" opacity="0.12"/>
  <line x1="125.4" y1="326.0" x2="118.5" y2="322.0" stroke="#B08A3C" stroke-width="0.5" opacity="0.5"/>
  <line x1="149.5" y1="284.5" x2="147.0" y2="282.8" stroke="#B08A3C" stroke-width="0.5" opacity="0.12"/>
  <line x1="179.4" y1="247.1" x2="175.6" y2="243.9" stroke="#B08A3C" stroke-width="0.5" opacity="0.25"/>
  <line x1="211.1" y1="211.1" x2="209.0" y2="209.0" stroke="#B08A3C" stroke-width="0.5" opacity="0.12"/>
  <line x1="247.1" y1="179.4" x2="243.9" y2="175.6" stroke="#B08A3C" stroke-width="0.5" opacity="0.25"/>
  <line x1="284.5" y1="149.5" x2="282.8" y2="147.0" stroke="#B08A3C" stroke-width="0.5" opacity="0.12"/>
  <line x1="326.0" y1="125.4" x2="322.0" y2="118.5" stroke="#B08A3C" stroke-width="0.5" opacity="0.5"/>
  <line x1="367.6" y1="101.5" x2="366.3" y2="98.8" stroke="#B08A3C" stroke-width="0.5" opacity="0.12"/>
  <line x1="412.2" y1="84.1" x2="410.5" y2="79.4" stroke="#B08A3C" stroke-width="0.5" opacity="0.25"/>
  <line x1="457.6" y1="68.7" x2="456.9" y2="65.8" stroke="#B08A3C" stroke-width="0.5" opacity="0.12"/>
  <line x1="504.7" y1="59.3" x2="503.8" y2="54.4" stroke="#B08A3C" stroke-width="0.5" opacity="0.25"/>
  <line x1="552.1" y1="52.1" x2="551.8" y2="49.1" stroke="#B08A3C" stroke-width="0.5" opacity="0.12"/>
  <circle cx="1056.6" cy="828.4" r="0.8" fill="#C9A85B" opacity="0.18"/>
  <circle cx="482.5" cy="1112.3" r="0.8" fill="#C9A85B" opacity="0.47"/>
  <circle cx="1093.6" cy="488.7" r="1.8" fill="#C9A85B" opacity="0.17"/>
  <circle cx="885.8" cy="154.0" r="0.8" fill="#C9A85B" opacity="0.48"/>
  <circle cx="204.3" cy="968.7" r="0.8" fill="#C9A85B" opacity="0.35"/>
  <circle cx="943.6" cy="1052.7" r="0.8" fill="#C9A85B" opacity="0.34"/>
  <circle cx="993.0" cy="245.4" r="0.8" fill="#C9A85B" opacity="0.35"/>
  <circle cx="397.5" cy="1108.9" r="0.8" fill="#C9A85B" opacity="0.35"/>
  <circle cx="197.0" cy="938.1" r="0.8" fill="#C9A85B" opacity="0.35"/>
  <circle cx="236.4" cy="992.1" r="1.8" fill="#C9A85B" opacity="0.42"/>
  <circle cx="721.1" cy="1151.5" r="1.4" fill="#C9A85B" opacity="0.25"/>
  <circle cx="72.3" cy="448.9" r="1.1" fill="#C9A85B" opacity="0.18"/>
  <circle cx="1108.2" cy="766.0" r="1.4" fill="#C9A85B" opacity="0.41"/>
  <circle cx="1152.5" cy="734.3" r="0.8" fill="#C9A85B" opacity="0.33"/>
  <circle cx="1050.9" cy="333.2" r="1.8" fill="#C9A85B" opacity="0.30"/>
  <circle cx="480.5" cy="108.9" r="1.4" fill="#C9A85B" opacity="0.27"/>
  <circle cx="1032.3" cy="914.8" r="1.8" fill="#C9A85B" opacity="0.17"/>
  <circle cx="887.9" cy="168.3" r="0.8" fill="#C9A85B" opacity="0.17"/>
  <circle cx="79.8" cy="763.6" r="1.8" fill="#C9A85B" opacity="0.25"/>
  <circle cx="959.6" cy="1012.0" r="0.8" fill="#C9A85B" opacity="0.48"/>
  <circle cx="1027.9" cy="933.9" r="1.8" fill="#C9A85B" opacity="0.17"/>
  <circle cx="94.3" cy="541.8" r="1.1" fill="#C9A85B" opacity="0.29"/>
  <circle cx="333.1" cy="136.6" r="1.1" fill="#C9A85B" opacity="0.31"/>
  <circle cx="428.3" cy="1134.9" r="1.8" fill="#C9A85B" opacity="0.45"/>
  <circle cx="1120.7" cy="694.0" r="1.4" fill="#C9A85B" opacity="0.39"/>
  <circle cx="952.3" cy="977.2" r="0.8" fill="#C9A85B" opacity="0.21"/>
  <circle cx="600" cy="600" r="505" fill="none" stroke="#B08A3C" stroke-width="0.5" opacity="0.2"/>
  <circle cx="600" cy="600" r="498" fill="none" stroke="#B08A3C" stroke-width="1.0" opacity="0.16" stroke-dasharray="60 14"/>
  <circle cx="600" cy="600" r="490" fill="none" stroke="#B08A3C" stroke-width="0.5" opacity="0.24"/>
  <circle cx="600" cy="600" r="462" fill="none" stroke="#B08A3C" stroke-width="0.5" opacity="0.2"/>
  <circle cx="600" cy="600" r="455" fill="none" stroke="#B08A3C" stroke-width="1.2" opacity="0.22"/>
  <circle cx="600" cy="600" r="448" fill="none" stroke="#B08A3C" stroke-width="0.5" opacity="0.15" stroke-dasharray="3 8"/>
  <g id="dizhi" opacity="0.6">
    <text x="600.0" y="103.0" text-anchor="middle" dominant-baseline="central" font-size="13" fill="#B08A3C" opacity="0.6" font-family="Noto Serif SC,serif">子</text>
    <text x="848.5" y="169.6" text-anchor="middle" dominant-baseline="central" font-size="13" fill="#B08A3C" opacity="0.6" font-family="Noto Serif SC,serif">丑</text>
    <text x="1030.4" y="351.5" text-anchor="middle" dominant-baseline="central" font-size="13" fill="#B08A3C" opacity="0.6" font-family="Noto Serif SC,serif">寅</text>
    <text x="1097.0" y="600.0" text-anchor="middle" dominant-baseline="central" font-size="13" fill="#B08A3C" opacity="0.6" font-family="Noto Serif SC,serif">卯</text>
    <text x="1030.4" y="848.5" text-anchor="middle" dominant-baseline="central" font-size="13" fill="#B08A3C" opacity="0.6" font-family="Noto Serif SC,serif">辰</text>
    <text x="848.5" y="1030.4" text-anchor="middle" dominant-baseline="central" font-size="13" fill="#B08A3C" opacity="0.6" font-family="Noto Serif SC,serif">巳</text>
    <text x="600.0" y="1097.0" text-anchor="middle" dominant-baseline="central" font-size="13" fill="#B08A3C" opacity="0.6" font-family="Noto Serif SC,serif">午</text>
    <text x="351.5" y="1030.4" text-anchor="middle" dominant-baseline="central" font-size="13" fill="#B08A3C" opacity="0.6" font-family="Noto Serif SC,serif">未</text>
    <text x="169.6" y="848.5" text-anchor="middle" dominant-baseline="central" font-size="13" fill="#B08A3C" opacity="0.6" font-family="Noto Serif SC,serif">申</text>
    <text x="103.0" y="600.0" text-anchor="middle" dominant-baseline="central" font-size="13" fill="#B08A3C" opacity="0.6" font-family="Noto Serif SC,serif">酉</text>
    <text x="169.6" y="351.5" text-anchor="middle" dominant-baseline="central" font-size="13" fill="#B08A3C" opacity="0.6" font-family="Noto Serif SC,serif">戌</text>
    <text x="351.5" y="169.6" text-anchor="middle" dominant-baseline="central" font-size="13" fill="#B08A3C" opacity="0.6" font-family="Noto Serif SC,serif">亥</text>
  </g>
  <g id="bagua">
    <line x1="587.0" y1="586.0" x2="613.0" y2="586.0" stroke="#B08A3C" stroke-width="1" opacity="0.6"/>
    <line x1="587.0" y1="597.0" x2="613.0" y2="597.0" stroke="#B08A3C" stroke-width="1" opacity="0.6"/>
    <line x1="587.0" y1="608.0" x2="613.0" y2="608.0" stroke="#B08A3C" stroke-width="1" opacity="0.6"/>
    <text x="600.0" y="158.0" text-anchor="middle" dominant-baseline="central" font-size="17" fill="#B08A3C" opacity="0.55" font-family="Noto Serif SC,serif">乾</text>
    <line x1="600.7" y1="580.9" x2="612.8" y2="593.0" stroke="#B08A3C" stroke-width="1" opacity="0.6"/>
    <line x1="622.0" y1="602.2" x2="619.1" y2="599.3" stroke="#B08A3C" stroke-width="1" opacity="0.6"/>
    <line x1="592.9" y1="588.7" x2="611.3" y2="607.1" stroke="#B08A3C" stroke-width="1" opacity="0.6"/>
    <line x1="585.2" y1="596.5" x2="603.5" y2="614.8" stroke="#B08A3C" stroke-width="1" opacity="0.6"/>
    <text x="912.5" y="287.5" text-anchor="middle" dominant-baseline="central" font-size="17" fill="#B08A3C" opacity="0.55" font-family="Noto Serif SC,serif">巽</text>
    <line x1="614.0" y1="587.0" x2="614.0" y2="604.2" stroke="#B08A3C" stroke-width="1" opacity="0.6"/>
    <line x1="614.0" y1="617.2" x2="614.0" y2="613.0" stroke="#B08A3C" stroke-width="1" opacity="0.6"/>
    <line x1="603.0" y1="587.0" x2="603.0" y2="613.0" stroke="#B08A3C" stroke-width="1" opacity="0.6"/>
    <line x1="592.0" y1="587.0" x2="592.0" y2="604.2" stroke="#B08A3C" stroke-width="1" opacity="0.6"/>
    <line x1="592.0" y1="617.2" x2="592.0" y2="613.0" stroke="#B08A3C" stroke-width="1" opacity="0.6"/>
    <text x="1042.0" y="600.0" text-anchor="middle" dominant-baseline="central" font-size="17" fill="#B08A3C" opacity="0.55" font-family="Noto Serif SC,serif">坎</text>
    <line x1="619.1" y1="600.7" x2="607.0" y2="612.8" stroke="#B08A3C" stroke-width="1" opacity="0.6"/>
    <line x1="597.8" y1="622.0" x2="600.7" y2="619.1" stroke="#B08A3C" stroke-width="1" opacity="0.6"/>
    <line x1="611.3" y1="592.9" x2="599.2" y2="605.1" stroke="#B08A3C" stroke-width="1" opacity="0.6"/>
    <line x1="590.0" y1="614.3" x2="592.9" y2="611.3" stroke="#B08A3C" stroke-width="1" opacity="0.6"/>
    <line x1="603.5" y1="585.2" x2="585.2" y2="603.5" stroke="#B08A3C" stroke-width="1" opacity="0.6"/>
    <text x="912.5" y="912.5" text-anchor="middle" dominant-baseline="central" font-size="17" fill="#B08A3C" opacity="0.55" font-family="Noto Serif SC,serif">艮</text>
    <line x1="613.0" y1="614.0" x2="595.8" y2="614.0" stroke="#B08A3C" stroke-width="1" opacity="0.6"/>
    <line x1="582.8" y1="614.0" x2="587.0" y2="614.0" stroke="#B08A3C" stroke-width="1" opacity="0.6"/>
    <line x1="613.0" y1="603.0" x2="595.8" y2="603.0" stroke="#B08A3C" stroke-width="1" opacity="0.6"/>
    <line x1="582.8" y1="603.0" x2="587.0" y2="603.0" stroke="#B08A3C" stroke-width="1" opacity="0.6"/>
    <line x1="613.0" y1="592.0" x2="595.8" y2="592.0" stroke="#B08A3C" stroke-width="1" opacity="0.6"/>
    <line x1="582.8" y1="592.0" x2="587.0" y2="592.0" stroke="#B08A3C" stroke-width="1" opacity="0.6"/>
    <text x="600.0" y="1042.0" text-anchor="middle" dominant-baseline="central" font-size="17" fill="#B08A3C" opacity="0.55" font-family="Noto Serif SC,serif">坤</text>
    <line x1="599.3" y1="619.1" x2="580.9" y2="600.7" stroke="#B08A3C" stroke-width="1" opacity="0.6"/>
    <line x1="607.1" y1="611.3" x2="594.9" y2="599.2" stroke="#B08A3C" stroke-width="1" opacity="0.6"/>
    <line x1="585.7" y1="590.0" x2="588.7" y2="592.9" stroke="#B08A3C" stroke-width="1" opacity="0.6"/>
    <line x1="614.8" y1="603.5" x2="602.7" y2="591.4" stroke="#B08A3C" stroke-width="1" opacity="0.6"/>
    <line x1="593.5" y1="582.2" x2="596.5" y2="585.2" stroke="#B08A3C" stroke-width="1" opacity="0.6"/>
    <text x="287.5" y="912.5" text-anchor="middle" dominant-baseline="central" font-size="17" fill="#B08A3C" opacity="0.55" font-family="Noto Serif SC,serif">震</text>
    <line x1="586.0" y1="613.0" x2="586.0" y2="587.0" stroke="#B08A3C" stroke-width="1" opacity="0.6"/>
    <line x1="597.0" y1="613.0" x2="597.0" y2="595.8" stroke="#B08A3C" stroke-width="1" opacity="0.6"/>
    <line x1="597.0" y1="582.8" x2="597.0" y2="587.0" stroke="#B08A3C" stroke-width="1" opacity="0.6"/>
    <line x1="608.0" y1="613.0" x2="608.0" y2="587.0" stroke="#B08A3C" stroke-width="1" opacity="0.6"/>
    <text x="158.0" y="600.0" text-anchor="middle" dominant-baseline="central" font-size="17" fill="#B08A3C" opacity="0.55" font-family="Noto Serif SC,serif">离</text>
    <line x1="580.9" y1="599.3" x2="599.3" y2="580.9" stroke="#B08A3C" stroke-width="1" opacity="0.6"/>
    <line x1="588.7" y1="607.1" x2="607.1" y2="588.7" stroke="#B08A3C" stroke-width="1" opacity="0.6"/>
    <line x1="596.5" y1="614.8" x2="608.6" y2="602.7" stroke="#B08A3C" stroke-width="1" opacity="0.6"/>
    <line x1="617.8" y1="593.5" x2="614.8" y2="596.5" stroke="#B08A3C" stroke-width="1" opacity="0.6"/>
    <text x="287.5" y="287.5" text-anchor="middle" dominant-baseline="central" font-size="17" fill="#B08A3C" opacity="0.55" font-family="Noto Serif SC,serif">兑</text>
  </g>
  <g id="tiangan" opacity="0.5">
    <text x="745.2" y="153.0" text-anchor="middle" dominant-baseline="central" font-size="11" fill="#B08A3C" opacity="0.5" font-family="Noto Serif SC,serif">甲</text>
    <text x="980.2" y="323.7" text-anchor="middle" dominant-baseline="central" font-size="11" fill="#B08A3C" opacity="0.5" font-family="Noto Serif SC,serif">乙</text>
    <text x="1070.0" y="600.0" text-anchor="middle" dominant-baseline="central" font-size="11" fill="#B08A3C" opacity="0.5" font-family="Noto Serif SC,serif">丙</text>
    <text x="980.2" y="876.3" text-anchor="middle" dominant-baseline="central" font-size="11" fill="#B08A3C" opacity="0.5" font-family="Noto Serif SC,serif">丁</text>
    <text x="745.2" y="1047.0" text-anchor="middle" dominant-baseline="central" font-size="11" fill="#B08A3C" opacity="0.5" font-family="Noto Serif SC,serif">戊</text>
    <text x="454.8" y="1047.0" text-anchor="middle" dominant-baseline="central" font-size="11" fill="#B08A3C" opacity="0.5" font-family="Noto Serif SC,serif">己</text>
    <text x="219.8" y="876.3" text-anchor="middle" dominant-baseline="central" font-size="11" fill="#B08A3C" opacity="0.5" font-family="Noto Serif SC,serif">庚</text>
    <text x="130.0" y="600.0" text-anchor="middle" dominant-baseline="central" font-size="11" fill="#B08A3C" opacity="0.5" font-family="Noto Serif SC,serif">辛</text>
    <text x="219.8" y="323.7" text-anchor="middle" dominant-baseline="central" font-size="11" fill="#B08A3C" opacity="0.5" font-family="Noto Serif SC,serif">壬</text>
    <text x="454.8" y="153.0" text-anchor="middle" dominant-baseline="central" font-size="11" fill="#B08A3C" opacity="0.5" font-family="Noto Serif SC,serif">癸</text>
  </g>
  <g id="jiuxing" opacity="0.4">
    <text x="746.4" y="197.8" text-anchor="middle" dominant-baseline="central" font-size="9.5" fill="#C9A85B" opacity="0.42" font-family="Noto Serif SC,serif">蓬</text>
    <text x="970.7" y="386.0" text-anchor="middle" dominant-baseline="central" font-size="9.5" fill="#C9A85B" opacity="0.42" font-family="Noto Serif SC,serif">芮</text>
    <text x="1021.5" y="674.3" text-anchor="middle" dominant-baseline="central" font-size="9.5" fill="#C9A85B" opacity="0.42" font-family="Noto Serif SC,serif">冲</text>
    <text x="875.1" y="927.9" text-anchor="middle" dominant-baseline="central" font-size="9.5" fill="#C9A85B" opacity="0.42" font-family="Noto Serif SC,serif">辅</text>
    <text x="600.0" y="1028.0" text-anchor="middle" dominant-baseline="central" font-size="9.5" fill="#C9A85B" opacity="0.42" font-family="Noto Serif SC,serif">禽</text>
    <text x="324.9" y="927.9" text-anchor="middle" dominant-baseline="central" font-size="9.5" fill="#C9A85B" opacity="0.42" font-family="Noto Serif SC,serif">心</text>
    <text x="178.5" y="674.3" text-anchor="middle" dominant-baseline="central" font-size="9.5" fill="#C9A85B" opacity="0.42" font-family="Noto Serif SC,serif">柱</text>
    <text x="229.3" y="386.0" text-anchor="middle" dominant-baseline="central" font-size="9.5" fill="#C9A85B" opacity="0.42" font-family="Noto Serif SC,serif">任</text>
    <text x="453.6" y="197.8" text-anchor="middle" dominant-baseline="central" font-size="9.5" fill="#C9A85B" opacity="0.42" font-family="Noto Serif SC,serif">英</text>
  </g>
  <g id="bamen" opacity="0.5">
    <text x="754.6" y="226.8" text-anchor="middle" dominant-baseline="central" font-size="10" fill="#B08A3C" opacity="0.5" font-family="Noto Serif SC,serif">休</text>
    <text x="973.2" y="445.4" text-anchor="middle" dominant-baseline="central" font-size="10" fill="#B08A3C" opacity="0.5" font-family="Noto Serif SC,serif">生</text>
    <text x="973.2" y="754.6" text-anchor="middle" dominant-baseline="central" font-size="10" fill="#B08A3C" opacity="0.5" font-family="Noto Serif SC,serif">伤</text>
    <text x="754.6" y="973.2" text-anchor="middle" dominant-baseline="central" font-size="10" fill="#B08A3C" opacity="0.5" font-family="Noto Serif SC,serif">杜</text>
    <text x="445.4" y="973.2" text-anchor="middle" dominant-baseline="central" font-size="10" fill="#B08A3C" opacity="0.5" font-family="Noto Serif SC,serif">景</text>
    <text x="226.8" y="754.6" text-anchor="middle" dominant-baseline="central" font-size="10" fill="#B08A3C" opacity="0.5" font-family="Noto Serif SC,serif">死</text>
    <text x="226.8" y="445.4" text-anchor="middle" dominant-baseline="central" font-size="10" fill="#B08A3C" opacity="0.5" font-family="Noto Serif SC,serif">惊</text>
    <text x="445.4" y="226.8" text-anchor="middle" dominant-baseline="central" font-size="10" fill="#B08A3C" opacity="0.5" font-family="Noto Serif SC,serif">开</text>
  </g>
  <g id="luoshu" opacity="0.3">
    <text x="600.0" y="232.0" text-anchor="middle" dominant-baseline="central" font-size="15" fill="#C9A85B" opacity="0.4" font-family="Noto Serif SC,serif">9</text>
    <text x="860.2" y="339.8" text-anchor="middle" dominant-baseline="central" font-size="15" fill="#C9A85B" opacity="0.4" font-family="Noto Serif SC,serif">4</text>
    <text x="968.0" y="600.0" text-anchor="middle" dominant-baseline="central" font-size="15" fill="#C9A85B" opacity="0.4" font-family="Noto Serif SC,serif">3</text>
    <text x="860.2" y="860.2" text-anchor="middle" dominant-baseline="central" font-size="15" fill="#C9A85B" opacity="0.4" font-family="Noto Serif SC,serif">8</text>
    <text x="600.0" y="968.0" text-anchor="middle" dominant-baseline="central" font-size="15" fill="#C9A85B" opacity="0.4" font-family="Noto Serif SC,serif">1</text>
    <text x="339.8" y="860.2" text-anchor="middle" dominant-baseline="central" font-size="15" fill="#C9A85B" opacity="0.4" font-family="Noto Serif SC,serif">6</text>
    <text x="232.0" y="600.0" text-anchor="middle" dominant-baseline="central" font-size="15" fill="#C9A85B" opacity="0.4" font-family="Noto Serif SC,serif">7</text>
    <text x="339.8" y="339.8" text-anchor="middle" dominant-baseline="central" font-size="15" fill="#C9A85B" opacity="0.4" font-family="Noto Serif SC,serif">2</text>
  </g>
  <circle cx="600" cy="600" r="130" fill="none" stroke="#B08A3C" stroke-width="1" opacity="0.5"/>
  <circle cx="600" cy="600" r="124" fill="none" stroke="#B08A3C" stroke-width="0.5" opacity="0.25" stroke-dasharray="1 5"/>
</svg>