<svg xmlns="http://www.w3.org/2000/svg" viewBox="0 0 480 320" width="480" height="320">
<text x="240" y="26" text-anchor="middle" font-size="17" fill="#5a4632" font-family="serif" font-weight="bold">十神六亲关系（以日干为我）</text>
<rect x="30" y="52" width="160" height="30" rx="6" fill="#faf7f0" stroke="#b08d2e" stroke-width="1.2"/>
<text x="110" y="71" text-anchor="middle" font-size="13" fill="#3d2f1d" font-family="serif">比肩·劫财</text>
<rect x="200" y="52" width="140" height="30" rx="6" fill="#f5efe2" stroke="#b08d2e" stroke-width="1.2"/>
<text x="270" y="71" text-anchor="middle" font-size="13" fill="#3d2f1d" font-family="serif">兄弟·姐妹</text>
<rect x="350" y="52" width="100" height="30" rx="6" fill="#faf0f0" stroke="#b08d2e" stroke-width="1.2"/>
<text x="400" y="71" text-anchor="middle" font-size="13" fill="#3d2f1d" font-family="serif">同我者</text>
<rect x="30" y="86" width="160" height="30" rx="6" fill="#faf7f0" stroke="#b08d2e" stroke-width="1.2"/>
<text x="110" y="105" text-anchor="middle" font-size="13" fill="#3d2f1d" font-family="serif">食神·伤官</text>
<rect x="200" y="86" width="140" height="30" rx="6" fill="#f5efe2" stroke="#b08d2e" stroke-width="1.2"/>
<text x="270" y="105" text-anchor="middle" font-size="13" fill="#3d2f1d" font-family="serif">子女·晚辈</text>
<rect x="350" y="86" width="100" height="30" rx="6" fill="#faf0f0" stroke="#b08d2e" stroke-width="1.2"/>
<text x="400" y="105" text-anchor="middle" font-size="13" fill="#3d2f1d" font-family="serif">我生者</text>
<rect x="30" y="120" width="160" height="30" rx="6" fill="#fdf6e3" stroke="#b08d2e" stroke-width="1.2"/>
<text x="110" y="139" text-anchor="middle" font-size="13" fill="#3d2f1d" font-family="serif">正财·偏财</text>
<rect x="200" y="120" width="140" height="30" rx="6" fill="#f5efe2" stroke="#b08d2e" stroke-width="1.2"/>
<text x="270" y="139" text-anchor="middle" font-size="13" fill="#3d2f1d" font-family="serif">妻财·父亲</text>
<rect x="350" y="120" width="100" height="30" rx="6" fill="#faf0f0" stroke="#b08d2e" stroke-width="1.2"/>
<text x="400" y="139" text-anchor="middle" font-size="13" fill="#3d2f1d" font-family="serif">我克者</text>
<rect x="30" y="154" width="160" height="30" rx="6" fill="#faf7f0" stroke="#b08d2e" stroke-width="1.2"/>
<text x="110" y="173" text-anchor="middle" font-size="13" fill="#3d2f1d" font-family="serif">正官·七杀</text>
<rect x="200" y="154" width="140" height="30" rx="6" fill="#f5efe2" stroke="#b08d2e" stroke-width="1.2"/>
<text x="270" y="173" text-anchor="middle" font-size="13" fill="#3d2f1d" font-family="serif">官杀·子女(女命)</text>
<rect x="350" y="154" width="100" height="30" rx="6" fill="#faf0f0" stroke="#b08d2e" stroke-width="1.2"/>
<text x="400" y="173" text-anchor="middle" font-size="13" fill="#3d2f1d" font-family="serif">克我者</text>
<rect x="30" y="188" width="160" height="30" rx="6" fill="#faf7f0" stroke="#b08d2e" stroke-width="1.2"/>
<text x="110" y="207" text-anchor="middle" font-size="13" fill="#3d2f1d" font-family="serif">正印·偏印</text>
<rect x="200" y="188" width="140" height="30" rx="6" fill="#f5efe2" stroke="#b08d2e" stroke-width="1.2"/>
<text x="270" y="207" text-anchor="middle" font-size="13" fill="#3d2f1d" font-family="serif">母亲·长辈</text>
<rect x="350" y="188" width="100" height="30" rx="6" fill="#faf0f0" stroke="#b08d2e" stroke-width="1.2"/>
<text x="400" y="207" text-anchor="middle" font-size="13" fill="#3d2f1d" font-family="serif">生我者</text>
<text x="240" y="236" text-anchor="middle" font-size="11.5" fill="#8a7a5e">生我者父母 · 我生者子孙 · 克我者官杀 · 我克者妻财 · 同我者兄弟</text>
</svg>